<?xml version="1.0" encoding="utf-8"?>
<!-- Generator: Adobe Illustrator 17.0.0, SVG Export Plug-In . SVG Version: 6.00 Build 0)  -->
<!DOCTYPE svg PUBLIC "-//W3C//DTD SVG 1.1//EN" "http://www.w3.org/Graphics/SVG/1.1/DTD/svg11.dtd">
<svg version="1.1" id="Origami_1_" xmlns="http://www.w3.org/2000/svg" xmlns:xlink="http://www.w3.org/1999/xlink" x="0px" y="0px"
	 width="65px" height="65px" viewBox="0 0 65 65" enable-background="new 0 0 65 65" xml:space="preserve">
<g id="Path">
	<g>
		<polygon fill-rule="evenodd" clip-rule="evenodd" fill="#FFCA00" points="30.673,44.983 18.164,53.339 26.309,64 37.945,55.356 		
			"/>
	</g>
</g>
<g id="Path_1_">
	<g>
		<polygon fill-rule="evenodd" clip-rule="evenodd" fill="#F55D34" points="38.236,0.898 26.6,9.542 36.782,20.779 47.545,12.711 		
			"/>
	</g>
</g>
<g id="Path_2_">
	<g>
		<polygon fill-rule="evenodd" clip-rule="evenodd" fill="#FF7A4D" points="26.309,9.253 26.309,64 38.236,55.356 38.236,0.61 		"/>
	</g>
</g>
<g id="Path_3_">
	<g>
		<polygon fill-rule="evenodd" clip-rule="evenodd" fill="#F55D34" points="11.764,17.61 1,25.678 9.727,37.203 20.2,30 		"/>
	</g>
</g>
<g id="Path_4_">
	<g>
		<polygon fill-rule="evenodd" clip-rule="evenodd" fill="#F55D34" points="55.982,25.966 44.636,36.051 52.782,46.711 
			64.709,37.491 		"/>
	</g>
</g>
<g id="Path_5_">
	<g>
		<polygon fill-rule="evenodd" clip-rule="evenodd" fill="#FF7A4D" points="56.273,25.678 1,25.678 9.727,37.491 65,37.491 		"/>
	</g>
</g>
<g id="Path_6_">
	<g>
		<polygon fill-rule="evenodd" clip-rule="evenodd" fill="#FFCA00" points="26.231,8.533 26.231,25.6 38.538,25.6 38.538,0 		"/>
	</g>
</g>
<g id="Path_7_">
	<g>
		<polygon fill-rule="evenodd" clip-rule="evenodd" fill="#FF9326" points="38.538,0.61 38.538,19.505 47.769,12.8 		"/>
	</g>
</g>
<g id="Path_8_">
	<g>
		<polygon fill-rule="evenodd" clip-rule="evenodd" fill="#FF9326" points="26.231,37.791 26.231,64 38.538,55.466 38.538,37.791 		
			"/>
	</g>
</g>
</svg>
