<?xml version="1.0" encoding="utf-8"?>
<!-- Generator: Adobe Illustrator 17.0.0, SVG Export Plug-In . SVG Version: 6.00 Build 0)  -->
<!DOCTYPE svg PUBLIC "-//W3C//DTD SVG 1.1//EN" "http://www.w3.org/Graphics/SVG/1.1/DTD/svg11.dtd">
<svg version="1.1" id="Statistics_1_" xmlns="http://www.w3.org/2000/svg" xmlns:xlink="http://www.w3.org/1999/xlink" x="0px"
	 y="0px" width="65px" height="40px" viewBox="0 0 65 40" enable-background="new 0 0 65 40" xml:space="preserve">
<g id="Rectangle">
	<g>
		<rect x="6.029" y="23.759" fill-rule="evenodd" clip-rule="evenodd" fill="#E74C3C" width="10.057" height="15.241"/>
	</g>
</g>
<g id="Rectangle_1_">
	<g>
		<rect x="15.171" y="15.241" fill-rule="evenodd" clip-rule="evenodd" fill="#E74C3C" width="10.057" height="23.759"/>
	</g>
</g>
<g id="Rectangle_2_">
	<g>
		<rect x="25.228" y="7.622" fill-rule="evenodd" clip-rule="evenodd" fill="#FDCD0D" width="10.057" height="31.379"/>
	</g>
</g>
<g id="Rectangle_3_">
	<g>
		<rect x="35.286" y="0" fill-rule="evenodd" clip-rule="evenodd" fill="#E74C3C" width="10.057" height="39"/>
	</g>
</g>
<g id="Path">
	<g>
		<polygon fill-rule="evenodd" clip-rule="evenodd" fill="#FDB705" points="25.228,7.62 35.286,17.483 35.286,7.62 		"/>
	</g>
</g>
<g id="Path_1_">
	<g>
		<polygon fill-rule="evenodd" clip-rule="evenodd" fill="#4DD2FF" points="65,17.931 51.286,7.62 51.286,14.793 45.343,14.793 
			35.286,22.414 24.771,22.414 15.171,28.69 1,28.69 1,34.517 15.171,34.517 25.228,28.69 35.286,28.69 45.343,20.621 
			51.286,20.621 51.286,27.793 		"/>
	</g>
</g>
<g id="Rectangle_4_">
	<g>
		<rect x="25.228" y="22.414" fill-rule="evenodd" clip-rule="evenodd" fill="#41B5DD" width="10.057" height="6.276"/>
	</g>
</g>
<g id="Rectangle_5_">
	<g>
		<rect x="1" y="28.688" fill-rule="evenodd" clip-rule="evenodd" fill="#41B5DD" width="14.171" height="5.828"/>
	</g>
</g>
</svg>
