<?xml version="1.0" encoding="utf-8"?>
<!-- Generator: Adobe Illustrator 17.0.0, SVG Export Plug-In . SVG Version: 6.00 Build 0)  -->
<!DOCTYPE svg PUBLIC "-//W3C//DTD SVG 1.1//EN" "http://www.w3.org/Graphics/SVG/1.1/DTD/svg11.dtd">
<svg version="1.1" id="Refresh_1_" xmlns="http://www.w3.org/2000/svg" xmlns:xlink="http://www.w3.org/1999/xlink" x="0px" y="0px"
	 width="65px" height="75px" viewBox="0 0 65 75" enable-background="new 0 0 65 75" xml:space="preserve">
<g id="Path">
	<g>
		<polygon fill-rule="evenodd" clip-rule="evenodd" fill="#F1C40F" points="41.078,31.858 35.175,43.585 42.631,46.698 
			44.391,44.726 		"/>
	</g>
</g>
<g id="Path_1_">
	<g>
		<polygon fill-rule="evenodd" clip-rule="evenodd" fill="#D5AF14" points="54.437,34.868 35.175,43.585 39.25,50.112 
			60.029,41.094 		"/>
	</g>
</g>
<g id="Path_2_">
	<g>
		<polygon fill-rule="evenodd" clip-rule="evenodd" fill="#3498DB" points="14.152,26.151 25.233,37.359 25.854,24.283 		"/>
	</g>
</g>
<g id="Path_3_">
	<g>
		<polygon fill-rule="evenodd" clip-rule="evenodd" fill="#2980B9" points="20.262,18.679 4.728,34.245 12.184,38.603 
			25.854,24.283 		"/>
	</g>
</g>
<g id="Compound_Shape">
	<g>
		<path fill-rule="evenodd" clip-rule="evenodd" fill="#3498DB" d="M63.144,24.486L61.536,4.79l-5.21,5.025
			C50.477,3.765,42.253,0,33.143,0C15.391,0,1,14.299,1,31.937c0,2.808,0.366,5.53,1.05,8.123l10.682-1.618
			c-0.661-2.051-1.018-4.237-1.018-6.505c0-11.759,9.594-21.291,21.429-21.291c6.094,0,11.594,2.527,15.496,6.584l-5.317,5.126
			L63.144,24.486z"/>
	</g>
</g>
<g id="Path_4_">
	<g>
		<path fill-rule="evenodd" clip-rule="evenodd" fill="#F1C40F" d="M54.437,34.868C48.845,57.594,23.99,51.057,23.99,51.057
			l3.728-6.849L7.835,47.943L14.67,66l3.728-5.603C57.44,74.406,65,36.736,65,36.736L54.437,34.868z"/>
	</g>
</g>
</svg>
