<?xml version="1.0" encoding="utf-8"?>
<!-- Generator: Adobe Illustrator 17.0.0, SVG Export Plug-In . SVG Version: 6.00 Build 0)  -->
<!DOCTYPE svg PUBLIC "-//W3C//DTD SVG 1.1//EN" "http://www.w3.org/Graphics/SVG/1.1/DTD/svg11.dtd">
<svg version="1.1" id="Comments_1_" xmlns="http://www.w3.org/2000/svg" xmlns:xlink="http://www.w3.org/1999/xlink" x="0px"
	 y="0px" width="66px" height="49px" viewBox="0 0 66 49" enable-background="new 0 0 66 49" xml:space="preserve">
<g id="Compound_Shape">
	<g>
		<path fill-rule="evenodd" clip-rule="evenodd" fill="#00C48B" d="M26.93,1.932C8.475,1.466,1,11.425,1,23.136
			c0,6.904,3.249,12.39,9.314,15.825C8.483,43.893,2.402,49,2.402,49c11.82-0.604,18.331-3.954,21.447-6.233
			c0.997,0.087,2.025,0.145,3.081,0.175c16.639,0.467,25.93-8.096,25.93-19.806C52.86,11.425,45.852,2.41,26.93,1.932z"/>
	</g>
</g>
<g id="Compound_Shape_1_">
	<g>
		<path fill-rule="evenodd" clip-rule="evenodd" fill="#00A776" d="M35.44,2.86C23.413,5.414,18.754,12.967,18.754,22.305
			c0,10.2,7.374,17.912,20.718,18.92c8.693-3.03,13.388-9.763,13.388-18.088C52.86,13.382,47.997,5.498,35.44,2.86z"/>
	</g>
</g>
<g id="Compound_Shape_2_">
	<g>
		<path fill-rule="evenodd" clip-rule="evenodd" fill="#ECF0F1" d="M57.372,31.433c4.972-2.822,7.636-7.329,7.636-13.001
			c0-9.62-6.129-17.802-21.258-17.419C28.237,1.406,22.492,8.812,22.492,18.432c0,9.62,7.618,16.654,21.258,16.27
			c0.866-0.024,1.709-0.072,2.526-0.143c2.555,1.872,7.893,4.624,17.583,5.12C63.859,39.68,58.873,35.484,57.372,31.433z"/>
	</g>
</g>
<g id="Composite_Path">
	<g>
		<path fill-rule="evenodd" clip-rule="evenodd" fill="#F9BF3B" d="M39.063,16.012h2.811v-2.678h-2.811V16.012z M47.028,13.334
			v2.678h2.811v-2.678H47.028z"/>
	</g>
</g>
<g id="Path">
	<g>
		<path fill-rule="evenodd" clip-rule="evenodd" fill="#F9BF3B" d="M48.902,20.886c-1.42,0.32-2.921,0.481-4.502,0.481
			c-0.783,0-1.544-0.049-2.284-0.132c-0.747-0.091-1.53-0.223-2.357-0.404c-0.82-0.182-1.552-0.384-2.189-0.593
			c-0.622-0.216-1.537-0.586-2.723-1.102v2.231c1.742,0.976,3.499,1.681,5.285,2.113c1.596,0.376,3.089,0.565,4.48,0.565
			c1.647,0,3.272-0.237,4.883-0.704c1.603-0.474,3.126-1.13,4.56-1.974v-2.231C52.035,19.986,50.315,20.565,48.902,20.886z"/>
	</g>
</g>
</svg>
