<?xml version="1.0" encoding="utf-8"?>
<!-- Generator: Adobe Illustrator 17.0.0, SVG Export Plug-In . SVG Version: 6.00 Build 0)  -->
<!DOCTYPE svg PUBLIC "-//W3C//DTD SVG 1.1//EN" "http://www.w3.org/Graphics/SVG/1.1/DTD/svg11.dtd">
<svg version="1.1" id="Graph_1_" xmlns="http://www.w3.org/2000/svg" xmlns:xlink="http://www.w3.org/1999/xlink" x="0px" y="0px"
	 width="65px" height="52px" viewBox="0 0 65 52" enable-background="new 0 0 65 52" xml:space="preserve">
<g id="Path">
	<g>
		<path fill-rule="evenodd" clip-rule="evenodd" fill="#B6B8B8" d="M8.924,1c0,0-4.572,3.687-5.486,3.687
			c-0.914,0,0,41.784,0,41.784h9.752V5.301L8.924,1z"/>
	</g>
</g>
<g id="Path_1_">
	<g>
		<polygon fill-rule="evenodd" clip-rule="evenodd" fill="#F4F4F5" points="60.124,40.326 13.19,40.326 8.314,44.627 65,44.012 		
			"/>
	</g>
</g>
<g id="Rectangle">
	<g>
		<rect x="1" y="44.122" fill-rule="evenodd" clip-rule="evenodd" fill="#D6D8D9" width="64" height="7.878"/>
	</g>
</g>
<g id="Rectangle_1_">
	<g>
		<rect x="1" y="1" fill-rule="evenodd" clip-rule="evenodd" fill="#D6D8D9" width="7.795" height="51"/>
	</g>
</g>
<g id="Rectangle_2_">
	<g>
		<polygon fill-rule="evenodd" clip-rule="evenodd" fill="#D6D8D9" points="28.942,14.855 3.901,40.513 5.542,42.172 30.994,16.928 
					"/>
	</g>
</g>
<g id="Path_2_">
	<g>
		<polygon fill-rule="evenodd" clip-rule="evenodd" fill="#D6D8D9" points="24.72,18.402 23.577,20.412 47.452,33.46 48.882,30.948 
					"/>
	</g>
</g>
<g id="Path_3_">
	<g>
		<path fill-rule="evenodd" clip-rule="evenodd" fill="#D6D8D9" d="M49.821,9.293l-4.923,17l2.051,0.83c0,0,4.923-16.378,4.923-17
			C51.872,9.499,49.821,9.293,49.821,9.293z"/>
	</g>
</g>
<g id="Ellipse">
	<g>
		<ellipse fill-rule="evenodd" clip-rule="evenodd" fill="#FFC926" cx="24.771" cy="20.662" rx="9.143" ry="9.217"/>
	</g>
</g>
<g id="Ellipse_1_">
	<g>
		<ellipse fill-rule="evenodd" clip-rule="evenodd" fill="#FFD58B" cx="24.771" cy="20.663" rx="5.486" ry="5.53"/>
	</g>
</g>
<g id="Ellipse_2_">
	<g>
		<ellipse fill-rule="evenodd" clip-rule="evenodd" fill="#FFAC31" cx="24.771" cy="20.663" rx="3.657" ry="3.687"/>
	</g>
</g>
<g id="Ellipse_3_">
	<g>
		<ellipse fill-rule="evenodd" clip-rule="evenodd" fill="#00B386" cx="44.439" cy="29.575" rx="7.022" ry="7.083"/>
	</g>
</g>
<g id="Ellipse_4_">
	<g>
		<ellipse fill-rule="evenodd" clip-rule="evenodd" fill="#00936E" cx="44.581" cy="29.572" rx="3.962" ry="3.994"/>
	</g>
</g>
<g id="Ellipse_5_">
	<g>
		<ellipse fill-rule="evenodd" clip-rule="evenodd" fill="#F35939" cx="51.414" cy="9.258" rx="7.022" ry="7.083"/>
	</g>
</g>
<g id="Ellipse_6_">
	<g>
		<ellipse fill-rule="evenodd" clip-rule="evenodd" fill="#4DD2FF" cx="39.705" cy="16.669" rx="3.352" ry="3.379"/>
	</g>
</g>
<g id="Ellipse_7_">
	<g>
		<ellipse fill-rule="evenodd" clip-rule="evenodd" fill="#CE4B30" cx="51.59" cy="8.988" rx="3.657" ry="3.687"/>
	</g>
</g>
</svg>
