<?xml version="1.0" encoding="UTF-8" standalone="no"?>
<!DOCTYPE svg PUBLIC "-//W3C//DTD SVG 1.1//EN" "http://www.w3.org/Graphics/SVG/1.1/DTD/svg11.dtd">
<svg version="1.1" xmlns="http://www.w3.org/2000/svg" xmlns:xlink="http://www.w3.org/1999/xlink" preserveAspectRatio="xMidYMid meet" viewBox="0 0 130 119.71000000000001" width="130" height="119.71"><defs><path d="M23.11 96.91L15.89 119.71L37.56 105.46L28.89 102.61L23.11 96.91Z" id="n5sx6OFKAw"></path><path d="M98.4 102.24L119.3 114.32L110.1 90.28L105.33 97.97L98.4 102.24Z" id="bicHWvVe"></path><path d="M130 56.1C130 87.09 100.9 112.21 65 112.21C29.1 112.21 0 87.09 0 56.1C0 25.12 29.1 0 65 0C100.9 0 130 25.12 130 56.1Z" id="g5n1F4M7R"></path><path d="M43.29 9.03C41.8 9.67 30.4 15.51 21.87 22.42C16.31 26.93 12.4 32.8 10.85 34.88C7.29 39.63 5.52 45 4.67 47.21C3.08 51.34 2.89 55.08 2.89 56.2C2.89 56.98 2.89 57.76 2.96 58.53C2.96 58.82 2.96 59.1 3.01 59.39C3.01 59.87 3.09 60.33 3.13 60.79C3.18 61.26 3.2 61.5 3.25 61.9C3.33 62.54 3.43 63.18 3.54 63.81C4.2 50.88 12.48 39.72 22.26 31.42C37.5 18.49 65.16 6.41 83.19 21.51C85.55 23.53 87.66 25.81 89.49 28.31C97.16 30.87 104.34 34.68 110.72 39.61C116.8 44.31 123.59 50.79 126.63 58.31C126.63 57.61 126.7 56.91 126.7 56.2C126.7 27.46 98.99 4.16 64.79 4.16C64.79 4.16 64.79 4.16 64.79 4.16L64.79 4.16C56.22 4.95 49.05 6.57 43.29 9.03Z" id="e1oqc6qQMh"></path><path d="M78.62 95C68.45 99.14 56.76 100.44 45.83 99.67C45.28 100.1 40.87 103.58 40.32 104.01C43.17 105.04 46.08 105.88 49.04 106.53C49.04 106.53 49.04 106.53 49.04 106.53C49.98 106.74 50.94 106.92 51.91 107.09C51.93 107.09 52.07 107.09 52.09 107.09C52.99 107.25 53.91 107.38 54.83 107.51C54.86 107.51 55.16 107.51 55.2 107.51C56.06 107.62 56.93 107.71 57.8 107.8C57.85 107.81 58.29 107.85 58.35 107.86C59.18 107.92 60.03 107.98 60.88 108.02C60.95 108.02 61.47 108.02 61.53 108.02C62.65 108.02 63.67 108.1 64.75 108.1C65.83 108.1 66.65 108.1 67.59 108.03C67.67 108.03 68.3 108.03 68.38 108.03C69.13 108.03 69.87 107.98 70.62 107.89C70.68 107.89 71.16 107.89 71.22 107.89C72.11 107.81 73 107.71 73.88 107.6C73.94 107.59 74.22 107.55 74.74 107.48L76.62 107.19C77.19 107.1 77.5 107.05 77.57 107.04C78.38 106.9 79.18 106.74 79.98 106.57C80.05 106.56 80.38 106.48 80.98 106.34L82.5 105.98L83.72 105.66C84.51 105.43 84.95 105.31 85.04 105.28C85.76 105.07 86.47 104.85 87.18 104.62C87.25 104.6 87.6 104.48 88.23 104.28L89.66 103.76C90.15 103.57 90.43 103.47 90.48 103.45C92.13 102.81 93.73 102.12 95.3 101.37C95.36 101.34 95.81 101.12 95.87 101.1C96.38 100.84 96.9 100.59 97.4 100.32C96.86 99.95 94.14 98.12 89.24 94.82L89.24 94.82C84.52 95.03 80.98 95.09 78.62 95Z" id="b1GzzfJpMF"></path><path d="M102.1 36.78C101.3 36.26 100.47 35.75 99.61 35.25C99.61 35.25 99.61 35.25 99.61 35.25C96.97 33.68 94.23 32.26 91.42 31.01C103.78 50.27 104.96 81.36 83.49 92.72C82.71 93.13 81.9 93.53 81.1 93.9C81.1 93.9 81.1 93.9 81.1 93.9L84.61 93.9C84.61 93.9 84.61 93.9 84.61 93.9C85.72 93.9 86.9 93.85 87.96 93.78C92.56 93.53 94.33 95.12 98.23 97.76C98.34 97.84 98.92 98.23 99.97 98.94L100.37 98.71L99.98 98.95L99.98 98.95L114.14 108.59L107.84 93.6L107.84 93.6L107.53 93.84L107.84 93.59C107.43 92.65 107.21 92.12 107.17 92.01C107.22 91.96 107.28 91.93 107.36 91.93C107.34 91.93 107.26 91.93 107.24 91.93C115.05 86.76 123.32 77.55 123.55 67.71C123.55 67.71 123.55 67.71 123.55 67.71L123.55 67.71C116.36 51.6 109.21 41.29 102.1 36.78Z" id="d2SK1wzgo"></path><path d="M63.69 18.04L63.98 18.04L64.29 18.05L64.59 18.06L64.9 18.08L65.22 18.09L65.54 18.12L65.86 18.14L66.19 18.17L66.52 18.2L66.7 18.22L66.87 18.24L67.04 18.26L67.22 18.29L67.39 18.31L67.57 18.34L67.74 18.36L67.92 18.39L68.1 18.42L68.28 18.45L68.46 18.48L68.64 18.51L68.82 18.55L69 18.58L69.18 18.62L69.37 18.66L69.55 18.7L69.74 18.74L69.92 18.78L70.11 18.82L70.29 18.87L70.48 18.91L70.67 18.96L70.86 19.01L71.05 19.06L71.24 19.11L71.43 19.16L71.62 19.21L71.82 19.27L72.01 19.32L72.21 19.38L72.4 19.44L72.6 19.5L72.79 19.56L72.99 19.62L73.19 19.68L73.39 19.75L73.59 19.82L73.79 19.88L73.99 19.95L75.06 20.6L76.09 21.3L77.08 22.05L78.05 22.84L78.98 23.67L79.87 24.54L80.74 25.45L81.57 26.4L82.37 27.38L83.13 28.39L83.87 29.43L84.57 30.51L85.24 31.61L85.89 32.74L86.5 33.89L87.08 35.06L87.64 36.25L88.16 37.46L88.66 38.69L89.13 39.94L89.57 41.19L89.99 42.46L90.37 43.74L90.73 45.03L91.07 46.32L91.38 47.62L91.66 48.91L91.92 50.21L92.15 51.51L92.36 52.81L92.54 54.1L92.7 55.39L92.84 56.66L92.95 57.93L93.04 59.19L93.11 60.43L93.16 61.65L93.19 62.86L93.19 64.05L93.18 65.22L93.09 67.04L92.92 68.8L92.67 70.49L92.33 72.14L91.92 73.72L91.44 75.25L90.87 76.73L90.24 78.15L89.54 79.52L88.78 80.83L87.95 82.09L87.06 83.3L86.11 84.46L85.11 85.57L84.05 86.62L82.95 87.63L81.79 88.58L80.59 89.49L79.34 90.35L78.06 91.16L76.73 91.92L75.37 92.64L73.98 93.31L72.55 93.94L71.1 94.52L69.62 95.05L68.11 95.54L66.59 95.99L65.04 96.4L63.48 96.76L61.91 97.08L60.32 97.36L58.72 97.6L57.12 97.8L55.52 97.96L53.91 98.08L52.31 98.17L50.7 98.21L49.11 98.22L47.52 98.19L47.15 98.18L46.79 98.17L46.44 98.17L46.11 98.17L45.78 98.16L45.46 98.16L45.15 98.16L44.84 98.17L44.55 98.18L44.26 98.19L43.97 98.2L43.7 98.22L43.43 98.24L43.16 98.27L42.9 98.3L42.64 98.34L42.38 98.38L42.13 98.43L41.88 98.48L41.64 98.54L41.39 98.6L41.15 98.67L40.91 98.75L40.66 98.84L40.42 98.93L40.18 99.03L39.93 99.14L39.69 99.25L39.44 99.38L39.19 99.51L38.94 99.65L38.68 99.81L38.42 99.97L38.15 100.14L37.88 100.32L37.61 100.51L37.33 100.72L37.04 100.93L36.75 101.16L36.44 101.39L20.97 113.63L27.28 96.07L27.28 96.07L27.28 96.06L27.28 96.06L27.28 96.05L27.28 96.05L27.28 96.05L27.28 96.04L27.28 96.04L27.28 96.04L27.27 96.03L27.27 96.03L27.27 96.03L27.27 96.02L27.26 96.02L27.26 96.01L27.26 96.01L27.25 96.01L27.25 96L27.24 96L27.24 95.99L27.23 95.99L27.23 95.99L27.22 95.98L27.21 95.97L27.2 95.97L27.19 95.96L27.18 95.95L27.18 95.95L27.16 95.94L27.15 95.94L27.14 95.93L27.13 95.92L27.12 95.92L27.11 95.91L27.09 95.9L27.16 95.9L26.48 95.38L25.82 94.84L25.16 94.29L24.52 93.73L23.89 93.15L23.26 92.57L22.65 91.97L22.05 91.36L21.46 90.73L20.88 90.1L20.32 89.45L19.76 88.8L19.22 88.13L18.69 87.46L18.18 86.77L17.68 86.08L17.19 85.37L16.72 84.66L16.25 83.93L15.81 83.2L15.38 82.46L14.96 81.72L14.56 80.96L14.17 80.2L13.8 79.43L13.45 78.65L13.11 77.86L12.79 77.07L12.48 76.28L12.19 75.48L11.92 74.67L11.66 73.85L11.43 73.03L11.21 72.21L11 71.38L10.82 70.55L10.66 69.71L10.51 68.87L10.38 68.03L10.27 67.18L10.17 66.04L10.11 64.91L10.11 63.78L10.15 62.66L10.23 61.55L10.36 60.45L10.53 59.36L10.75 58.28L11.01 57.2L11.3 56.14L11.63 55.08L12 54.03L12.4 53L12.84 51.97L13.31 50.95L13.81 49.95L14.34 48.95L14.9 47.97L15.48 47L16.09 46.04L16.72 45.09L17.38 44.16L18.05 43.23L18.75 42.32L19.47 41.43L20.2 40.54L20.94 39.67L21.71 38.82L22.48 37.97L23.27 37.15L24.06 36.33L24.87 35.53L25.68 34.75L26.5 33.98L27.32 33.23L28.14 32.49L28.97 31.77L29.8 31.07L30.63 30.38L31.45 29.71L31.83 29.4L32.24 29.09L32.66 28.77L33.11 28.45L33.57 28.13L34.05 27.8L34.55 27.47L35.07 27.14L35.6 26.81L36.15 26.47L36.71 26.13L37.29 25.8L37.89 25.46L38.5 25.13L39.12 24.79L39.75 24.46L40.4 24.13L41.06 23.81L41.74 23.49L42.42 23.17L43.11 22.85L43.82 22.55L44.53 22.24L45.25 21.95L45.98 21.66L46.72 21.38L47.47 21.1L48.22 20.84L48.98 20.58L49.74 20.33L50.52 20.1L51.29 19.87L52.07 19.65L52.86 19.45L53.64 19.26L54.43 19.08L55.23 18.91L56.02 18.76L56.82 18.62L57.61 18.5L57.69 18.49L57.78 18.47L57.87 18.46L57.98 18.44L58.09 18.43L58.21 18.41L58.35 18.39L58.49 18.37L58.63 18.35L58.79 18.33L58.95 18.31L59.13 18.28L59.31 18.26L59.49 18.24L59.69 18.22L59.89 18.2L60.1 18.18L60.31 18.16L60.54 18.14L60.77 18.12L61 18.11L61.24 18.09L61.49 18.08L61.75 18.07L62.01 18.05L62.27 18.05L62.55 18.04L62.82 18.04L63.11 18.03L63.39 18.03L63.69 18.04ZM55.07 24.34L53.99 24.5L52.93 24.72L51.87 24.99L50.83 25.31L49.79 25.69L48.76 26.12L47.74 26.61L46.73 27.16L45.73 27.75L44.74 28.4L43.76 29.11L42.79 29.87L41.83 30.69L40.87 31.56L39.93 32.48L38.99 33.46L39.11 33.4L39.44 33.24L39.97 32.99L40.71 32.67L41.62 32.32L42.72 31.95L43.97 31.58L45.37 31.23L46.92 30.93L48.6 30.7L50.39 30.55L52.29 30.52L54.28 30.62L56.37 30.88L58.52 31.31L60.74 31.93L63.01 32.78L65.32 33.87L67.66 35.22L70.01 36.86L72.38 38.8L74.74 41.07L77.08 43.69L79.4 46.68L81.69 50.06L83.92 53.86L86.1 58.09L88.2 62.78L88.2 62.68L88.17 62.37L88.13 61.87L88.06 61.2L87.97 60.36L87.84 59.37L87.68 58.25L87.47 57L87.22 55.65L86.92 54.2L86.57 52.66L86.17 51.06L85.7 49.39L85.17 47.69L84.57 45.95L83.89 44.2L83.14 42.44L82.31 40.7L81.4 38.97L80.39 37.29L79.29 35.65L78.1 34.07L76.8 32.57L75.4 31.16L73.89 29.86L72.27 28.66L70.53 27.6L68.67 26.68L67.49 26.18L66.31 25.74L65.14 25.36L63.99 25.03L62.84 24.75L61.7 24.53L60.57 24.36L59.45 24.25L58.34 24.19L57.24 24.19L56.15 24.24L55.07 24.34Z" id="bKxLvlxuE"></path></defs><g><g><g><use xlink:href="#n5sx6OFKAw" opacity="1" fill="#ffffff" fill-opacity="1"></use><g><use xlink:href="#n5sx6OFKAw" opacity="1" fill-opacity="0" stroke="#000000" stroke-width="1" stroke-opacity="0"></use></g></g><g><use xlink:href="#bicHWvVe" opacity="1" fill="#ffffff" fill-opacity="1"></use><g><use xlink:href="#bicHWvVe" opacity="1" fill-opacity="0" stroke="#000000" stroke-width="1" stroke-opacity="0"></use></g></g><g><use xlink:href="#g5n1F4M7R" opacity="1" fill="#ffffff" fill-opacity="1"></use><g><use xlink:href="#g5n1F4M7R" opacity="1" fill-opacity="0" stroke="#000000" stroke-width="1" stroke-opacity="0"></use></g></g><g><use xlink:href="#e1oqc6qQMh" opacity="1" fill="#027dcc" fill-opacity="1"></use><g><use xlink:href="#e1oqc6qQMh" opacity="1" fill-opacity="0" stroke="#000000" stroke-width="1" stroke-opacity="0"></use></g></g><g><use xlink:href="#b1GzzfJpMF" opacity="1" fill="#027dcc" fill-opacity="1"></use><g><use xlink:href="#b1GzzfJpMF" opacity="1" fill-opacity="0" stroke="#000000" stroke-width="1" stroke-opacity="0"></use></g></g><g><use xlink:href="#d2SK1wzgo" opacity="1" fill="#282c2d" fill-opacity="1"></use><g><use xlink:href="#d2SK1wzgo" opacity="1" fill-opacity="0" stroke="#000000" stroke-width="1" stroke-opacity="0"></use></g></g><g><use xlink:href="#bKxLvlxuE" opacity="1" fill="#282c2d" fill-opacity="1"></use><g><use xlink:href="#bKxLvlxuE" opacity="1" fill-opacity="0" stroke="#000000" stroke-width="1" stroke-opacity="0"></use></g></g></g></g></svg>