<?xml version="1.0" ?><svg id="Layer_1" style="enable-background:new 0 0 128 128;" version="1.1" viewBox="0 0 128 128" xml:space="preserve" xmlns="http://www.w3.org/2000/svg" xmlns:xlink="http://www.w3.org/1999/xlink"><style type="text/css">
	.st0{fill:#DFE8F4;}
	.st1{fill:#FF5050;}
	.st2{fill:#FFFFFF;}
	.st3{fill:#9B0270;}
	.st4{fill:#845AC0;}
	.st5{fill:#4D28A8;}
	.st6{fill:#FFD952;}
	.st7{fill:#FF9D00;}
	.st8{fill:#B688FF;}
	.st9{fill:#52EFBB;}
	.st10{fill:#2F847A;}
	.st11{fill:#B8C7D8;}
	.st12{fill:#0795FF;}
	.st13{fill:none;stroke:#0795FF;stroke-width:10;stroke-miterlimit:10;}
	.st14{fill:#700B58;}
	.st15{fill:#33BC8B;}
	.st16{fill:#2F7082;}
	.st17{fill:#FF7300;}
</style><g><path class="st0" d="M111,56L95.3,93.2L56,111C25.6,111,1,86.4,1,56C1,25.6,25.6,1,56,1C86.4,1,111,25.6,111,56z"/><path class="st12" d="M120.5,106.4l-19.2-19.2c6.1-8.9,9.7-19.6,9.7-31.2h-10c0,24.8-20.2,45-45,45v10c11.6,0,22.3-3.6,31.2-9.7   l19.2,19.2l10.1-4.1L120.5,106.4z"/><circle class="st2" cx="56" cy="56" r="35"/><rect class="st5" height="10" transform="matrix(0.7071 -0.7071 0.7071 0.7071 -48.4558 116.9828)" width="20" x="107" y="112"/></g></svg>